<svg id="glipy" viewBox="0 0 64 64" xmlns="http://www.w3.org/2000/svg"><path d="m31.9831 14.24319a10.64213 10.64213 0 1 0 10.64712 10.63718 10.65445 10.65445 0 0 0 -10.64712-10.63718z"/><path d="m26.70943 36.35651c-.03036.00756-.06584.017-4.74134 1.57586-.29709.10063.72001-.23665 4.74134-1.57586z"/><path d="m16.00239 39.92228c2.55191-.85151 4.48817-1.49722 5.9657-1.98991.494-.1674 4.62149-1.54586 4.62149-1.54586a12.82082 12.82082 0 0 1 -7.25119-11.50614c.70605-16.76126 24.58318-16.76223 25.28942 0 .15856 5.13529-3.44982 9.58-7.25144 11.50589l4.72452 1.5783a12.95518 12.95518 0 0 1 16.57 2.40713c5.79628-17.53328-8.14471-36.65461-26.688-36.33579-22.26778-.21409-35.78735 25.65239-23.08149 43.73701a10.77828 10.77828 0 0 1 7.10099-7.85063z"/><path d="m35.97828 48.98129a12.97566 12.97566 0 0 1 4.19494-9.55841l-3.42585-1.13876a15.29419 15.29419 0 0 0 -9.52854 0l-10.5872 3.52577a8.79516 8.79516 0 0 0 -5.99277 8.23011 27.93978 27.93978 0 0 0 29.71414 8.64954 12.95324 12.95324 0 0 1 -4.37472-9.70825z"/><path d="m48.9626 37.99455a10.99976 10.99976 0 0 0 -10.98674 10.98674c.59688 14.57652 21.3788 14.57238 21.97348-.00012a10.99973 10.99973 0 0 0 -10.98674-10.98662zm-.2397 3.99518a1.47834 1.47834 0 0 1 -.00006 2.95639 1.47834 1.47834 0 0 1 .00006-2.95639zm1.678 13.98312h-2.87656a.999.999 0 0 1 .00006-1.99759h.43941v-5.77306c-.70307.0823-1.42248-.19471-1.43827-.99892a1.00176 1.00176 0 0 1 .9988-.99867h1.43826a1.00179 1.00179 0 0 1 .9988.9988v6.77185h.43947a.9989.9989 0 0 1 0 1.99759z"/></svg>