<svg id="Layer_1" enable-background="new 0 0 511.992 511.992" height="512" viewBox="0 0 511.992 511.992" width="512" xmlns="http://www.w3.org/2000/svg"><path d="m510.616 196.062c-3.944-12.141-15.728-20.486-32.329-22.897l-131.649-19.132-58.875-119.294c-7.425-15.043-19.003-23.671-31.767-23.671s-24.342 8.628-31.766 23.671l-58.873 119.293-131.651 19.132c-16.602 2.411-28.385 10.757-32.33 22.896-3.944 12.14.684 25.817 12.695 37.526l95.263 92.856-22.489 131.121c-2.957 17.247 2.065 27.561 6.8 33.176 5.538 6.568 13.617 10.186 22.749 10.186 6.904 0 14.257-2.024 21.85-6.018l117.752-61.907 117.752 61.905c7.595 3.993 14.947 6.019 21.852 6.019h.002c9.133 0 17.212-3.617 22.75-10.186 4.734-5.614 9.757-15.929 6.799-33.177l-22.492-131.118 95.262-92.855c12.013-11.709 16.64-25.387 12.695-37.526z"/></svg>