<svg id="Solid" height="512" viewBox="0 0 128 128" width="512" xmlns="http://www.w3.org/2000/svg"><path d="m79.15 70.08a7.671 7.671 0 0 1 6.37-3.4h15.96a8.38 8.38 0 0 1 .982.058 1.048 1.048 0 0 0 1.188-1.038v-13.82a5.24 5.24 0 0 0 -5.24-5.24h-.934l-6.107-16.689a2.291 2.291 0 0 0 -2.938-1.364l-49.337 18.053h-8.784a10.84 10.84 0 0 0 -10.84 10.84v45.11a10.85 10.85 0 0 0 10.85 10.85h68.09a5.24 5.24 0 0 0 5.24-5.24v-13.833a1.047 1.047 0 0 0 -1.184-1.034 8.687 8.687 0 0 1 -.986.057h-15.96a7.662 7.662 0 0 1 -6.37-3.39l-3.82-5.69a7.691 7.691 0 0 1 0-8.55zm-19.118-23.44 23.829-8.719a2.289 2.289 0 0 1 2.939 1.363l2.692 7.356z"/><circle cx="59.34" cy="22.251" r="6.259"/><path d="m103.65 70.12a5.756 5.756 0 0 0 -2.17-.44h-15.96a4.681 4.681 0 0 0 -3.88 2.07l-3.82 5.68a4.7 4.7 0 0 0 0 5.21l3.82 5.69a4.671 4.671 0 0 0 3.88 2.06h15.96a5.6 5.6 0 0 0 2.17-.43c.02-.01.273-.123.363-.169a5.625 5.625 0 0 0 3.077-5v-9.5a5.607 5.607 0 0 0 -3.44-5.171zm-13.961 14.285a4.367 4.367 0 1 1 4.367-4.367 4.367 4.367 0 0 1 -4.367 4.367z"/><path d="m31.2 17.649a12.189 12.189 0 1 0 12.189 12.19 12.2 12.2 0 0 0 -12.189-12.19zm-5.825 12.19a5.825 5.825 0 1 1 5.825 5.825 5.825 5.825 0 0 1 -5.826-5.825z"/></svg>