<svg id="Layer_1" enable-background="new 0 0 512 512" viewBox="0 0 512 512" xmlns="http://www.w3.org/2000/svg"><path clip-rule="evenodd" d="m50.552 84.996h251.002l-.714.275c-5.715 2.2-9.896 6.924-11.479 12.618h-239.676c-11.466 0-20.792 9.325-20.792 20.792v211.917c0 10.483 8.517 19 19 19h280.308c3.833 4.824 8.341 9.199 13.269 12.893-17.481 6.334-33.265 16.4-46.309 29.309h-244.609c-19.003-.001-34.552-15.55-34.552-34.553v-237.7c0-19.003 15.549-34.551 34.552-34.551zm230.903 322.803h-103.359v22.895h90.221c3.597-8.133 8.014-15.797 13.138-22.895zm103.33-159.456c-31.082 0-56.28 25.197-56.28 56.28 0 31.082 25.198 56.279 56.28 56.279s56.279-25.197 56.279-56.279-25.197-56.28-56.279-56.28zm-104.958 221.893 209.915-.001c3.094 0 5.429-2.737 4.938-5.793-8.509-53.028-54.469-93.541-109.895-93.541-55.427 0-101.387 40.513-109.896 93.542-.492 3.056 1.844 5.793 4.938 5.793zm214.25-370.034-12.469-4.8c-.933-.359-1.577-1.082-1.827-2.051-1.912-7.413-4.86-14.518-8.752-21.11-.508-.862-.564-1.829-.158-2.743l5.428-12.219c.514-1.157.275-2.444-.62-3.339l-15.397-15.397c-.895-.895-2.182-1.134-3.339-.62l-12.225 5.429c-.914.406-1.881.35-2.742-.158-6.591-3.89-13.694-6.838-21.104-8.749-.969-.25-1.691-.894-2.05-1.827l-4.801-12.473c-.455-1.181-1.534-1.922-2.8-1.922h-21.774c-1.266 0-2.345.741-2.8 1.922l-4.802 12.473c-.359.934-1.082 1.578-2.05 1.827-7.41 1.912-14.513 4.859-21.104 8.749-.862.509-1.828.564-2.743.158l-12.225-5.429c-1.157-.514-2.444-.275-3.339.62l-15.397 15.397c-.895.895-1.134 2.182-.621 3.339l5.429 12.223c.406.915.35 1.881-.158 2.743-3.89 6.591-6.838 13.695-8.75 21.106-.25.969-.894 1.691-1.827 2.05l-12.472 4.801c-1.181.455-1.922 1.534-1.922 2.799v21.774c0 1.266.741 2.345 1.922 2.8l12.469 4.799c.933.359 1.577 1.082 1.827 2.05 1.912 7.413 4.86 14.518 8.751 21.11.509.862.564 1.829.158 2.743l-5.427 12.219c-.514 1.157-.275 2.444.62 3.339l15.397 15.397c.895.895 2.182 1.135 3.339.621l12.225-5.429c.914-.406 1.881-.35 2.742.158 6.592 3.89 13.694 6.838 21.104 8.749.969.25 1.691.894 2.05 1.827l4.801 12.473c.455 1.181 1.534 1.922 2.8 1.922h21.774c1.266 0 2.345-.741 2.8-1.923l4.799-12.469c.359-.933 1.082-1.577 2.051-1.827 7.413-1.912 14.518-4.86 21.11-8.752.862-.509 1.828-.564 2.743-.158l12.219 5.427c1.157.514 2.444.275 3.339-.62l15.397-15.397c.895-.895 1.135-2.182.621-3.339l-5.43-12.225c-.406-.915-.35-1.881.158-2.743 3.889-6.591 6.837-13.693 8.749-21.104.25-.969.894-1.691 1.827-2.05l12.473-4.801c1.181-.455 1.922-1.534 1.922-2.8v-21.774c.004-1.263-.737-2.342-1.919-2.796zm-93.744 58.845c-24.942 0-45.158-20.216-45.158-45.158 0-24.943 20.216-45.159 45.158-45.159 24.943 0 45.159 20.216 45.159 45.159-.001 24.942-20.217 45.158-45.159 45.158zm-312.295 334.731v-23.543c0-12.948 13.259-23.542 29.465-23.542h145c-1.431 4.946-2.58 10.021-3.414 15.215-2.049 12.77 7.803 24.328 20.737 24.328h113.583v7.543h-305.371zm343.416-286.898-2.502 6.5c-2.832 7.357-9.848 12.175-17.732 12.175h-21.774c-7.883 0-14.9-4.818-17.732-12.175l-2.504-6.506c-4.322-1.447-8.538-3.195-12.615-5.23l-6.377 2.833c-7.169 3.184-15.6 1.617-21.147-3.929l-15.397-15.397c-5.547-5.547-7.113-13.978-3.929-21.147l2.83-6.372c-2.036-4.08-3.785-8.298-5.233-12.622l-6.501-2.502c-7.357-2.832-12.175-9.848-12.175-17.732v-10.887h-238.981c-2.635 0-4.792 2.156-4.792 4.792v211.917c0 1.652 1.348 3 3 3l270.643-.039c-3.997-9.14-6.031-18.961-6.031-28.936 0-39.919 32.361-72.279 72.279-72.279 19.932 0 37.721 7.798 51.77 21.847v-49.177c-1.682.668-3.383 1.291-5.1 1.866zm-171.492 98.939h-175.59c-4.418 0-8-3.582-8-8s3.582-8 8-8v-59.504c0-2.203 1.797-4 4-4h29.271c2.203 0 4 1.797 4 4v59.504h31.936v-96.967c0-2.203 1.797-4 4-4h29.272c2.203 0 4 1.797 4 4v96.967h31.936v-136.087c0-2.203 1.797-4 4-4h29.271c2.203 0 4 1.797 4 4v136.088c4.374.052 7.904 3.613 7.904 7.999 0 4.418-3.582 8-8 8zm192.592-100.553c4.277 1.32 8.845 1.065 12.893-.612v152.592c0 7.89-2.682 15.183-7.178 21.017-9.248-6.539-19.388-11.865-30.172-15.773 5.905-4.427 11.088-9.715 15.398-15.705 6.15-3.789 9.058-9.887 9.058-16.98 2.981-8.06 4.51-16.589 4.51-25.182 0-8.855-1.596-17.337-4.51-25.178v-74.179z" fill-rule="evenodd"/></svg>