<svg id="Layer_1" enable-background="new 0 0 66 66" height="512" viewBox="0 0 66 66" width="512" xmlns="http://www.w3.org/2000/svg"><g><path d="m59.5 1h-53c-3 0-5.5 2.5-5.5 5.5v53c0 3 2.5 5.5 5.5 5.5h53.8.1c2.6-.4 4.6-2.7 4.6-5.3v-53.2c0-3-2.5-5.5-5.5-5.5zm-37.8 4.4c0-.5.4-1 1-1h3.8c.6 0 1 .5 1 1v3.8c0 .6-.4 1-1 1h-3.8c-.6 0-1-.4-1-1zm-7.3 0c0-.5.5-1 1-1h3.8c.6 0 1 .5 1 1v3.8c0 .6-.4 1-1 1h-3.8c-.5 0-1-.4-1-1zm-7.2 0c0-.5.4-1 1-1h3.8c.6 0 1 .5 1 1v3.8c0 .6-.4 1-1 1h-3.8c-.6 0-1-.4-1-1zm55.8 54.2c0 1.6-1.2 3.1-2.8 3.3l-53.7.1c-1.9 0-3.5-1.6-3.5-3.5v-45.9h60z"/><path d="m47.7 42.9c-.1-.5-.6-.8-1.1-.8-1.4.2-2.3-.1-2.5-.6-.2-.4.2-1.4 1.3-2.2.4-.3.5-.9.2-1.3-1.2-1.9-2.7-3.4-4.6-4.5-.4-.3-1-.2-1.3.2-.8 1.1-1.8 1.5-2.2 1.3s-.8-1.1-.6-2.5c.1-.5-.3-1-.8-1.1-2.1-.5-4.3-.5-6.4 0-.1 0-.1 0-.2.1-.4.2-.7.6-.6 1.1.2 1.4-.1 2.3-.6 2.5s-1.4-.2-2.2-1.3c-.3-.4-.8-.5-1.2-.3 0 0-.1 0-.1.1-1.8 1.2-3.4 2.7-4.5 4.6-.3.4-.2 1 .2 1.3 1.1.8 1.5 1.8 1.4 2.2-.2.4-1.1.8-2.5.6-.5-.1-1 .3-1.1.8-.5 2.1-.5 4.3 0 6.5.1.5.6.9 1.1.8 1.4-.2 2.3.2 2.5.6.2.5-.2 1.4-1.3 2.2-.4.3-.5.9-.2 1.3 1.2 1.9 2.8 3.4 4.6 4.5.4.3 1 .2 1.3-.2.9-1.1 1.7-1.5 2.2-1.3s.8 1.1.6 2.5c-.1.5.3 1 .8 1.1 1.1.2 2.1.3 3.2.3s2.2-.1 3.2-.3c.1 0 .1 0 .2-.1.4-.2.7-.6.6-1.1-.2-1.4.1-2.3.6-2.5.4-.2 1.4.2 2.2 1.3.3.4.8.5 1.2.3.1 0 .1 0 .1-.1 1.9-1.2 3.4-2.7 4.5-4.6.3-.4.2-1-.2-1.3-1.1-.8-1.5-1.7-1.3-2.2.2-.4 1.1-.8 2.5-.6.5.1 1-.3 1.1-.8.4-2.1.4-4.3-.1-6.5zm-11.2 10.9c-1.1.5-2.3.8-3.5.8-3.1 0-6.2-1.8-7.6-4.8-1.9-4.2-.1-9.1 4.1-11s9.1-.1 11 4.1c2 4 .2 8.9-4 10.9z"/><path d="m25.4 23.5c-.1-.5-.6-.9-1.1-.8-.8.1-1.2-.1-1.3-.2 0-.1.1-.5.8-1.1.4-.3.5-.9.2-1.3-.8-1.3-1.9-2.3-3.2-3.1-.4-.3-1-.2-1.3.2-.5.7-1 .8-1.1.8s-.3-.5-.2-1.3c.1-.5-.3-1-.8-1.1-1.5-.3-3-.3-4.4 0-.1 0-.1 0-.2.1-.4.2-.7.6-.6 1.1.1.9-.1 1.3-.2 1.3s-.6-.1-1.1-.8c-.3-.4-.8-.5-1.2-.3-.1 0-.1 0-.1.1-1.3.8-2.3 1.9-3.1 3.1-.3.4-.2 1 .2 1.3.7.5.8 1 .8 1.1s-.5.3-1.3.2c-.5-.1-1 .3-1.1.8-.3 1.4-.3 3 0 4.5.1.5.6.8 1.1.8.8-.1 1.2.1 1.3.2 0 .1-.1.6-.8 1.1-.4.3-.5.9-.2 1.3.8 1.3 1.9 2.3 3.2 3.1.4.3 1 .2 1.3-.2.5-.7 1-.8 1.1-.8s.3.5.2 1.3c-.1.5.3 1 .8 1.1.7.2 1.5.2 2.2.2.8 0 1.5-.1 2.2-.2.1 0 .1 0 .2-.1.4-.2.7-.6.6-1.1-.1-.8.1-1.3.2-1.3s.5.1 1.1.8c.3.4.8.5 1.2.3.1 0 .1 0 .1-.1 1.3-.8 2.3-1.9 3.1-3.1.3-.4.2-1-.2-1.3-.6-.5-.8-1-.8-1.1s.4-.3 1.3-.2c.5.1 1-.3 1.1-.8.3-1.6.3-3 0-4.5zm-1.8 3.1c-1.2.1-2.1.6-2.5 1.5s-.1 1.9.7 2.8c-.4.5-.9 1-1.4 1.4-.9-.8-1.9-1.1-2.8-.7s-1.4 1.3-1.5 2.5c-.6.1-1.3.1-1.9 0-.1-1.2-.6-2.1-1.5-2.5s-1.9-.1-2.8.7c-.5-.4-1-.8-1.4-1.4 1-.9 1.3-1.9.9-2.8s-1.3-1.4-2.5-1.5c-.1-.7-.1-1.3 0-1.9 1.2-.1 2.1-.6 2.5-1.5s.1-1.9-.7-2.8c.4-.5.9-1 1.4-1.4.9.8 1.9 1.1 2.8.7s1.4-1.3 1.4-2.5c.6-.1 1.3-.1 1.9 0 .1 1.2.6 2.1 1.5 2.5s1.9.1 2.8-.7c.5.4 1 .8 1.4 1.4-.8.9-1.1 1.9-.7 2.8s1.3 1.4 2.5 1.5c-.1.7-.1 1.3-.1 1.9z"/><path d="m20.1 27.5c-.5 1.3-1.4 2.3-2.7 2.9-.7.3-1.4.5-2.1.5-.6 0-1.2-.1-1.8-.3-1.3-.5-2.3-1.4-2.9-2.6s-.6-2.6-.2-3.9c.5-1.3 1.4-2.3 2.6-2.9 2.6-1.2 5.6-.1 6.8 2.5.7 1.1.7 2.5.3 3.8z"/><path d="m60.9 23.5c-.1-.5-.6-.9-1.1-.8-.8.1-1.3-.1-1.3-.2s.1-.5.8-1.1c.4-.3.5-.9.2-1.3-.8-1.3-1.9-2.3-3.2-3.1-.4-.3-1-.2-1.3.2-.5.7-1 .8-1 .8-.1 0-.3-.5-.2-1.3.1-.5-.3-1-.8-1.1-1.5-.3-3-.3-4.4 0-.1 0-.1 0-.2.1-.4.2-.7.6-.6 1.1.1.9-.1 1.3-.2 1.3s-.6-.1-1.1-.8c-.3-.4-.8-.5-1.2-.3-.1 0-.1.1-.2.1-1.3.8-2.3 1.9-3.1 3.1-.3.4-.2 1 .2 1.3.7.5.8 1 .8 1.1s-.4.3-1.3.2c-.5-.1-1 .3-1.1.8-.3 1.4-.3 3 0 4.5.1.5.6.8 1.1.8.8-.1 1.3.1 1.3.2s-.1.6-.8 1.1c-.4.3-.5.9-.2 1.3.8 1.3 1.9 2.3 3.1 3.1.4.3 1 .2 1.3-.2.5-.7 1-.8 1.1-.8s.3.5.2 1.3c-.1.5.3 1 .8 1.1.7.2 1.5.2 2.2.2s1.5-.1 2.2-.2c.1 0 .1 0 .2-.1.4-.2.7-.6.6-1.1-.1-.8.1-1.3.2-1.3s.5.1 1.1.8c.3.4.8.5 1.2.3.1 0 .1 0 .1-.1 1.3-.8 2.3-1.9 3.1-3.1.3-.4.2-1-.2-1.3-.6-.5-.8-1-.8-1.1s.4-.3 1.3-.2c.5.1 1-.3 1.1-.8.4-1.6.4-3 .1-4.5zm-1.9 3.1c-1.2.1-2.1.6-2.4 1.5-.4.9-.1 1.9.7 2.8-.4.5-.9 1-1.4 1.4-.9-.8-1.9-1.1-2.8-.7s-1.4 1.3-1.5 2.5c-.6.1-1.3.1-1.9 0-.1-1.2-.6-2.1-1.5-2.5s-1.9-.1-2.8.7c-.5-.4-1-.8-1.4-1.4.8-.9 1.1-1.9.7-2.8s-1.3-1.4-2.5-1.5c-.1-.7-.1-1.3 0-1.9 1.2-.1 2.1-.6 2.5-1.5s.1-1.9-.7-2.8c.4-.5.9-1 1.4-1.4.9.8 1.9 1.1 2.8.7s1.4-1.3 1.4-2.5c.6-.1 1.3-.1 1.9 0 .1 1.2.6 2.1 1.5 2.5s1.9.1 2.8-.7c.5.4 1 .8 1.4 1.4-.8.9-1.1 1.9-.7 2.8s1.3 1.4 2.5 1.5c.1.7.1 1.3 0 1.9z"/><path d="m55.5 27.5c-.5 1.3-1.4 2.3-2.6 2.9-.7.3-1.4.5-2.1.5-.6 0-1.2-.1-1.8-.3-1.3-.5-2.3-1.4-2.9-2.6s-.6-2.6-.2-3.9c.5-1.3 1.4-2.3 2.7-2.9 2.5-1.2 5.6-.1 6.8 2.5.5 1.1.6 2.5.1 3.8z"/></g></svg>