<?xml version="1.0" encoding="UTF-8"?>
<svg xmlns="http://www.w3.org/2000/svg" id="Layer_3" data-name="Layer 3" viewBox="0 0 64 64" width="512" height="512"><path d="M30,38V32a1,1,0,0,0-.4-.8l-2.149-1.612a.518.518,0,0,0-.673.048,2.575,2.575,0,0,1-3.556,0L20,26.414a1.415,1.415,0,0,0-2,0l-2.829,2.829A3.974,3.974,0,0,0,14,32.071V38a8,8,0,0,0,16,0Z"/><path d="M19,47.539V49a3,3,0,0,0,6,0V47.539a9.992,9.992,0,0,1-6,0Z"/><path d="M32,38h1a2,2,0,0,0,0-4H32Z"/><path d="M11,38h1V34H11a2,2,0,0,0,0,4Z"/><path d="M11.867,32H12a5.96,5.96,0,0,1,1.754-4.171L16.586,25a3.5,3.5,0,0,1,4.828,0l3.222,3.222a.517.517,0,0,0,.728,0,2.53,2.53,0,0,1,3.287-.234L30.8,29.6A3.014,3.014,0,0,1,32,32h.18l.7-3.49A6.278,6.278,0,0,0,26.721,21H24.5A2.5,2.5,0,0,1,22,18.5a.5.5,0,0,0-.5-.5H18.4A7.411,7.411,0,0,0,11,25.4a7.5,7.5,0,0,0,.074,1.047Z"/><path d="M32,50H26.9a5,5,0,0,1-9.8,0H12a9.011,9.011,0,0,0-9,9v2H41V59A9.011,9.011,0,0,0,32,50Z"/><path d="M59.607,13a11.916,11.916,0,0,0-1.278-3.086l1.692-1.692L55.778,3.979,54.086,5.671A11.916,11.916,0,0,0,51,4.393V2H45V4.393a11.916,11.916,0,0,0-3.086,1.278L40.222,3.979,35.979,8.222l1.692,1.692A11.916,11.916,0,0,0,36.393,13H34v6h2.393a11.916,11.916,0,0,0,1.278,3.086l-1.692,1.692,4.243,4.243,1.692-1.692A11.916,11.916,0,0,0,45,27.607V30h6V27.607a11.916,11.916,0,0,0,3.086-1.278l1.692,1.692,4.243-4.243-1.692-1.692A11.916,11.916,0,0,0,59.607,19H62V13ZM48,23a7,7,0,1,1,7-7A7,7,0,0,1,48,23Z"/><path d="M49,38h3v4a2,2,0,0,1-2,2H43v6h8a7,7,0,0,0,7-7V38h3l-6-6Z"/></svg>
